<svg xmlns="http://www.w3.org/2000/svg" xmlns:xlink="http://www.w3.org/1999/xlink" version="1.1" width="256" height="256" viewBox="0 0 256 256" xml:space="preserve">

<defs>
</defs>
<g style="stroke: none; stroke-width: 0; stroke-dasharray: none; stroke-linecap: butt; stroke-linejoin: miter; stroke-miterlimit: 10; fill: none; fill-rule: nonzero; opacity: 1;" transform="translate(1.4065934065934016 1.4065934065934016) scale(2.81 2.81)" >
	<rect x="43.52" y="1.48" rx="0" ry="0" width="2.97" height="86.66" style="stroke: none; stroke-width: 1; stroke-dasharray: none; stroke-linecap: butt; stroke-linejoin: miter; stroke-miterlimit: 10; fill: rgb(0,0,0); fill-rule: nonzero; opacity: 1;" transform=" matrix(1 0 0 1 0 0) "/>
	<path d="M 88.076 29.011 c -0.819 0 -1.484 -0.664 -1.484 -1.484 V 2.967 H 3.408 v 24.56 c 0 0.82 -0.664 1.484 -1.484 1.484 s -1.484 -0.664 -1.484 -1.484 V 1.484 C 0.441 0.664 1.105 0 1.924 0 h 86.151 c 0.819 0 1.484 0.664 1.484 1.484 v 26.044 C 89.559 28.347 88.895 29.011 88.076 29.011 z" style="stroke: none; stroke-width: 1; stroke-dasharray: none; stroke-linecap: butt; stroke-linejoin: miter; stroke-miterlimit: 10; fill: rgb(0,0,0); fill-rule: nonzero; opacity: 1;" transform=" matrix(1 0 0 1 0 0) " stroke-linecap="round" />
	<path d="M 60.118 90 H 29.882 c -0.82 0 -1.484 -0.664 -1.484 -1.484 c 0 -0.819 0.664 -1.484 1.484 -1.484 h 30.236 c 0.819 0 1.484 0.664 1.484 1.484 C 61.601 89.336 60.937 90 60.118 90 z" style="stroke: none; stroke-width: 1; stroke-dasharray: none; stroke-linecap: butt; stroke-linejoin: miter; stroke-miterlimit: 10; fill: rgb(0,0,0); fill-rule: nonzero; opacity: 1;" transform=" matrix(1 0 0 1 0 0) " stroke-linecap="round" />
</g>
</svg>